
        <svg xmlns="http://www.w3.org/2000/svg" xmlns:xlink="http://www.w3.org/1999/xlink" version="1.1" width="3162.208309618669" 
        height="727.602799425513" viewBox="0 0 3162.208309618669 727.602799425513">
			
			<g transform="scale(8.11041548093341) translate(10, 10)">
				<defs id="SvgjsDefs1001"></defs><g id="SvgjsG1007" featureKey="symbolFeature-0" transform="matrix(1.0060757499475252,0,0,1.0060757499475252,-4.5391965485578725,-14.672455813290874)" fill="#ffffff"><path xmlns="http://www.w3.org/2000/svg" d="M15,43.8c2.8-2,5.7-2.1,8.9-1.2c0.2,0.1,0.4,0.2,0.6,0.3c0.6,0.2,0.7,0.6,0.4,1.2c-1.4,3.1-3.5,5.7-6.7,7.1  c-1.6,0.7-2.1,1.7-2.2,3.2c-0.2,2.4-0.1,4.7,1.6,6.7c1.7,2,4.7,2.7,7.3,1.5c4.6-2.1,7.4-5.7,7.8-10.8c0.2-2.8-1-5.3-2.7-7.5  c-2-2.5-4.6-4.3-7.5-5.8c-0.6-0.3-1.1-0.6-1.6-1c-1.1-0.9-0.9-2.3,0.4-2.6c1.3-0.3,2.6-0.5,3.9-0.4c4.2,0.1,8.1,1.2,12,2.7  c1.4,0.5,2.8,1.1,4.2,1.7c1.2,0.5,2.1,0.1,2.9-0.9c1.4-1.6,2.8-3.2,4.2-4.8c3.6-3.9,7.4-7.6,11.8-10.7c4.3-3.1,8.9-5.6,14.1-7  c4.2-1.1,8.5-1.3,12.7-0.1c3.6,1.1,6.5,3.1,8.1,6.6c0.7,1.5,1,3.2,0.8,4.9c-4-0.1-7.1,2.1-10.1,4.2C80,35.3,75.5,40.7,72,46.9  c-2.1,3.9-3.9,8-5.9,11.9C62.6,66,58,72.3,51.5,77.1c-3.7,2.7-7.7,4.7-12.3,5.4c-0.5,0.1-1.1,0.1-1.6,0.1c-1.6-0.1-2.5-1.5-1.8-3  c0.4-0.8,0.9-1.6,1.4-2.3c3.3-4.8,6.1-9.8,7.9-15.4c0.7-2.2,1.2-4.5,1.8-6.8c0.1-0.2,0.1-0.5,0.1-0.7c0-0.9-0.4-1.6-1.1-1.8  c-0.7-0.2-1.5,0.1-1.9,1c-0.5,1-0.8,2-1.1,3.1c-1.2,3.8-2.6,7.6-4.9,10.9c-2.5,3.5-5.6,6.2-10,7.2c-5.4,1.2-10.5-1.2-13.5-6  c-2.4-3.8-3.1-8-3-12.4c0-1.3,0.2-2.7,0.4-4c0.1-0.6,0-0.9-0.6-1.2c-3.3-1.7-5.3-4.4-6.3-8c-0.7-2.3-0.6-4.7,0-7.1  c0.1-0.3,0.2-0.6,0.3-0.8c0.3-0.5,0.6-0.5,1-0.1c0.1,0.1,0.3,0.3,0.4,0.5c0.9,1.5,2.1,2.5,3.6,3.4c1.6,1,3.2,2,4.2,3.7  C14.6,43,14.8,43.4,15,43.8z M56.9,45.7c0.9-0.1,1.5-0.1,2.2-0.2c0.6-0.1,1.1-0.2,1.7-0.4c5.6-1.6,10-5,13.5-9.5  c1-1.3,1.9-2.6,2.2-4.3c0.4-1.8-0.7-3.2-2.6-3.2c-1,0-2,0.1-3,0.4c-5.9,1.8-11,5-15.4,9.3c-1.1,1.1-2.2,2.4-2.7,3.9  c-0.5,1.7,0.2,3.2,1.9,3.7C55.5,45.6,56.3,45.6,56.9,45.7z"></path><path xmlns="http://www.w3.org/2000/svg" d="M90.8,52.4c-0.2,5.2-1.6,9.7-3.8,14c-4,7.4-9.8,12.7-17.5,16.1c-1.3,0.6-2.7,1-4.1,1.3  c-0.5,0.1-1.1,0.1-1.7,0c-1.3-0.4-1.6-1.8-0.6-2.7c0.9-0.8,1.9-1.5,2.9-2.2c8.5-6.4,14.9-14.5,19.3-24.2c0.5-1.1,0.9-2.3,1.4-3.4  c0.2-0.5,0.4-1,0.7-1.4c0.4-0.6,0.9-1,1.7-0.9c0.7,0.1,1.3,0.5,1.5,1.3C90.7,51.1,90.7,51.9,90.8,52.4z"></path></g><g id="SvgjsG1008" featureKey="nameFeature-0" transform="matrix(0.8570608694266192,0,0,0.8570608694266192,110.76583189030578,12.509576789097723)" fill="#ffffff"><path d="M27.44 26.240000000000002 c0 8.96 -6.16 14 -13 14 s-13 -5.04 -13 -14 s6.16 -14 13 -14 s13 5.04 13 14 z M21.76 26.240000000000002 c0 -5.28 -2.96 -9.44 -7.32 -9.44 s-7.32 4.16 -7.32 9.44 s2.96 9.44 7.32 9.44 s7.32 -4.16 7.32 -9.44 z M37.162 25.16 l0 12.28 c0 1.48 -0.8 2.68 -2.52 2.68 s-2.52 -1.2 -2.52 -2.68 l0 -22.28 c0 -1.48 0.8 -2.68 2.52 -2.68 l8.56 0 c6.08 0 8.4 1.76 8.4 5.68 c0 2.72 -1.52 4.88 -3.64 6.28 c3.44 3.12 5.28 8.24 5.28 12.08 c0 1.84 -0.36 3.6 -2.36 3.6 c-2.2 0 -2.64 -1.48 -2.68 -3.36 c-0.12 -6.04 -3.4 -11.6 -11.04 -11.6 z M37.162 17.04 l0 3.8 c2.2 0 3.24 0.24 4.24 0.44 l2.44 0.64 c1.08 0 2.72 -1.8 2.72 -3 c0 -1.28 -1 -1.88 -2.72 -1.88 l-6.68 0 z M75.404 17.28 l-7.44 0 c-4.32 0 -5.8 2.76 -5.8 6.88 c0 5.12 4.44 11.04 12.88 11.04 c2.28 0 3.24 1.04 3.24 2.4 c0 1.92 -1.48 2.64 -4.24 2.64 c-7.84 0 -17.56 -5.28 -17.56 -16.4 c0 -6.88 4.28 -11.36 10.04 -11.36 l8.88 0 c1.44 0 2.6 0.76 2.6 2.4 s-1.16 2.4 -2.6 2.4 z M89.006 28.32 l-1.04 0 c-1.08 2.92 -1.68 6.76 -1.96 9.44 c-0.16 1.48 -1 2.36 -2.44 2.36 c-2.16 0 -2.6 -1.28 -2.6 -3.2 c0 -1.24 0.68 -8.44 5.92 -18.32 c2.28 -4.32 3.56 -6.36 6.36 -6.36 c2.32 0 3.68 2.04 5.96 6.36 c5.24 9.88 6.32 17.08 6.32 18.32 c0 2.08 -1 3.2 -2.4 3.2 c-2 0 -2.48 -1.16 -2.88 -3.32 c-1.04 -5.76 -6.76 -8.48 -11.24 -8.48 z M89.166 24.32 l0.52 0 c1.96 0 5.4 0.56 8.04 2.72 l0.08 -0.08 c-1.2 -3.44 -2.72 -6.8 -4.68 -9.92 c-1.6 2.4 -2.92 4.8 -3.96 7.28 z M128.33 15.079999999999998 l0 22.32 c0 1.52 -0.8 2.72 -2.52 2.72 s-2.52 -1.2 -2.52 -2.72 l0 -22.32 c0 -1.52 0.8 -2.72 2.52 -2.72 s2.52 1.2 2.52 2.72 z M150.05200000000002 17.28 l-9.24 0 c-1.24 0 -1.92 0.56 -1.92 1.6 c0 3.64 16.12 0.28 16.12 11.44 c0 5.04 -3.8 9.68 -10.64 9.68 l-8.6 0 c-1.44 0 -2.6 -0.76 -2.6 -2.4 s1.16 -2.4 2.6 -2.4 l6.56 0 c5.2 0 7.4 -1.28 7.4 -4.68 c0 -7.32 -16.12 -1.48 -16.12 -11.56 c0 -4.16 3.16 -6.48 8.16 -6.48 l8.28 0 c1.44 0 2.6 0.76 2.6 2.4 s-1.16 2.4 -2.6 2.4 z M160.13400000000001 36.56 l0 -21.48 c0 -1.52 0.84 -2.72 2.52 -2.72 s2.52 1.2 2.52 2.72 l0 20.12 l7.72 0 c1.44 0 2.6 0.76 2.6 2.4 s-1.16 2.4 -2.6 2.4 l-9.28 0 c-2.64 0 -3.48 -1.36 -3.48 -3.44 z M183.776 17.04 l0 3.44 l9.6 0 c1.36 0 2.44 0.72 2.44 2.28 s-1.08 2.28 -2.44 2.28 l-9.6 0 l0 10.4 l10 0 c1.36 0 2.44 0.72 2.44 2.28 s-1.08 2.28 -2.44 2.28 l-11.8 0 c-2.64 0 -3.48 -1.36 -3.48 -3.44 l0 -21.36 c0 -1.52 0.84 -2.72 2.2 -2.72 l13.08 0 c1.36 0 2.44 0.72 2.44 2.28 s-1.08 2.28 -2.44 2.28 l-10 0 z M224.14000000000004 17.28 l0 20.12 c0 1.52 -0.8 2.72 -2.52 2.72 s-2.52 -1.2 -2.52 -2.72 l0 -20.12 l-4.64 0 c-1.44 0 -2.6 -0.76 -2.6 -2.4 s1.16 -2.4 2.6 -2.4 l14.32 0 c1.44 0 2.6 0.76 2.6 2.4 s-1.16 2.4 -2.6 2.4 l-4.64 0 z M240.38200000000003 17.04 l0 3.44 l9.6 0 c1.36 0 2.44 0.72 2.44 2.28 s-1.08 2.28 -2.44 2.28 l-9.6 0 l0 10.4 l10 0 c1.36 0 2.44 0.72 2.44 2.28 s-1.08 2.28 -2.44 2.28 l-11.8 0 c-2.64 0 -3.48 -1.36 -3.48 -3.44 l0 -21.36 c0 -1.52 0.84 -2.72 2.2 -2.72 l13.08 0 c1.36 0 2.44 0.72 2.44 2.28 s-1.08 2.28 -2.44 2.28 l-10 0 z M275.944 17.28 l-7.44 0 c-4.32 0 -5.8 2.76 -5.8 6.88 c0 5.12 4.44 11.04 12.88 11.04 c2.28 0 3.24 1.04 3.24 2.4 c0 1.92 -1.48 2.64 -4.24 2.64 c-7.84 0 -17.56 -5.28 -17.56 -16.4 c0 -6.88 4.28 -11.36 10.04 -11.36 l8.88 0 c1.44 0 2.6 0.76 2.6 2.4 s-1.16 2.4 -2.6 2.4 z M288.026 20.88 l9.28 0 l0 -5.8 c0 -1.52 0.8 -2.72 2.52 -2.72 s2.52 1.2 2.52 2.72 l0 22.32 c0 1.52 -0.8 2.72 -2.52 2.72 s-2.52 -1.2 -2.52 -2.72 l0 -12.2 l-9.28 0 l0 12.2 c0 1.52 -0.8 2.72 -2.52 2.72 s-2.52 -1.2 -2.52 -2.72 l0 -22.32 c0 -1.52 0.8 -2.72 2.52 -2.72 s2.52 1.2 2.52 2.72 l0 5.8 z"></path></g>
			</g>
		</svg>
	